<svg version="1.1" xmlns="http://www.w3.org/2000/svg" viewBox="0 0 249.33764535485284 187.44307766759522" width="249.33764535485284" height="187.44307766759522" filter="invert(93%) hue-rotate(180deg)" class="excalidraw-svg"><!-- svg-source:excalidraw --><metadata></metadata><defs><style class="style-fonts">
      </style></defs><rect x="0" y="0" width="249.33764535485284" height="187.44307766759522" fill="#ffffff"></rect><g stroke-linecap="round" transform="translate(10 12.16865198432663) rotate(0 90.46840838283669 23.07592744402075)"><path d="M11.54 0 C74.41 2.44, 133.89 1.24, 169.4 0 M11.54 0 C58.71 -1.44, 105.81 -0.9, 169.4 0 M169.4 0 C178.07 -1.17, 181.01 2.62, 180.94 11.54 M169.4 0 C177.9 2.23, 181.9 2.41, 180.94 11.54 M180.94 11.54 C179.61 18.65, 182.75 24.7, 180.94 34.61 M180.94 11.54 C180.98 17.47, 180.63 23.85, 180.94 34.61 M180.94 34.61 C181.46 41.78, 175.51 46.19, 169.4 46.15 M180.94 34.61 C179.13 44.43, 175.46 44.43, 169.4 46.15 M169.4 46.15 C125.58 47.77, 78.42 47.62, 11.54 46.15 M169.4 46.15 C106.36 46.8, 43.7 47.2, 11.54 46.15 M11.54 46.15 C4.62 44.81, -0.92 40.46, 0 34.61 M11.54 46.15 C5.41 46.95, 1.16 43.26, 0 34.61 M0 34.61 C0.54 31.12, 0.84 24.98, 0 11.54 M0 34.61 C-0.97 26.68, -0.07 19.85, 0 11.54 M0 11.54 C-0.04 2.11, 2.32 -0.18, 11.54 0 M0 11.54 C-1.72 2.28, 1.73 2.13, 11.54 0" stroke="#1e1e1e" stroke-width="2" fill="none"></path></g><g stroke-linecap="round" transform="translate(75.3884764445985 58.97112308941621) rotate(0 21.09601602788851 59.235977289089504)"><path d="M10.55 0 C15.72 -0.05, 20.16 1.16, 31.64 0 M10.55 0 C16.96 -0.12, 25.29 -0.41, 31.64 0 M31.64 0 C38.75 -1.23, 42.9 5.46, 42.19 10.55 M31.64 0 C39.64 -1.44, 41.47 4.1, 42.19 10.55 M42.19 10.55 C43.27 50.21, 40.58 86.69, 42.19 107.92 M42.19 10.55 C42.31 46.85, 42.68 81.62, 42.19 107.92 M42.19 107.92 C40.61 115, 37.11 120.32, 31.64 118.47 M42.19 107.92 C40.56 113.23, 38.44 120.33, 31.64 118.47 M31.64 118.47 C24.06 118.66, 17.44 118.26, 10.55 118.47 M31.64 118.47 C23.61 118.1, 15.94 117.67, 10.55 118.47 M10.55 118.47 C2.6 116.62, 1.36 115.65, 0 107.92 M10.55 118.47 C4.67 119.43, -2.01 112.79, 0 107.92 M0 107.92 C0.47 69.39, 0.62 30.39, 0 10.55 M0 107.92 C0.87 77.99, 0.94 45.43, 0 10.55 M0 10.55 C-1.53 3.33, 2.02 -1.36, 10.55 0 M0 10.55 C-2.11 5.65, 3.85 -1.52, 10.55 0" stroke="#1e1e1e" stroke-width="2" fill="none"></path></g><g stroke-linecap="round" transform="translate(121.77325400051836 101.28368927478596) rotate(0 26.03172881614165 13.405409268293937)"><path d="M6.7 0 C20.82 1.28, 35.67 -0.67, 45.36 0 M6.7 0 C15.55 -0.47, 23.46 -0.5, 45.36 0 M45.36 0 C50.54 1.94, 52.9 0.98, 52.06 6.7 M45.36 0 C49.11 0.58, 54.35 0.64, 52.06 6.7 M52.06 6.7 C51.55 10.22, 53.07 16.28, 52.06 20.11 M52.06 6.7 C52.22 10.67, 51.52 15, 52.06 20.11 M52.06 20.11 C50.49 26.42, 48.41 25.31, 45.36 26.81 M52.06 20.11 C51.83 26.43, 51.74 29.02, 45.36 26.81 M45.36 26.81 C35.13 26.6, 22.61 26.47, 6.7 26.81 M45.36 26.81 C36.63 26.05, 26.67 25.8, 6.7 26.81 M6.7 26.81 C3.59 27.51, 1 25.41, 0 20.11 M6.7 26.81 C0.22 24.64, 2.24 24.94, 0 20.11 M0 20.11 C0.48 15.07, 0.18 8.86, 0 6.7 M0 20.11 C0 15.66, -0.5 12.31, 0 6.7 M0 6.7 C-1.49 0.87, 0.4 1.85, 6.7 0 M0 6.7 C0.34 0.71, 2.6 1.83, 6.7 0" stroke="#1e1e1e" stroke-width="2" fill="none"></path></g><g stroke-linecap="round" transform="translate(217.23360381033456 10) rotate(0 10.11630885946812 62.95079654484965)"><path d="M5.06 0 C8.52 -0.39, 10.37 -0.79, 15.17 0 M5.06 0 C7.81 -0.25, 10.7 0.55, 15.17 0 M15.17 0 C19.38 -1.25, 19.61 2.19, 20.23 5.06 M15.17 0 C20.84 -1.59, 21.28 3.7, 20.23 5.06 M20.23 5.06 C21.02 44.66, 19.87 83.11, 20.23 120.84 M20.23 5.06 C19.74 47.17, 19.75 90.16, 20.23 120.84 M20.23 120.84 C18.82 122.72, 18.34 127.52, 15.17 125.9 M20.23 120.84 C22.15 126.42, 18.9 126.48, 15.17 125.9 M15.17 125.9 C12.89 125.7, 8.3 125.9, 5.06 125.9 M15.17 125.9 C12.14 125.37, 9.92 126.01, 5.06 125.9 M5.06 125.9 C2.69 126.73, -1.75 122.33, 0 120.84 M5.06 125.9 C3.93 126.27, 1.62 124.93, 0 120.84 M0 120.84 C-0.12 83.12, -0.68 49.16, 0 5.06 M0 120.84 C-0.74 75.87, -0.73 30.4, 0 5.06 M0 5.06 C-1.84 3.54, 1.98 -1.33, 5.06 0 M0 5.06 C0.37 3.52, 1.74 1.8, 5.06 0" stroke="#1e1e1e" stroke-width="2" fill="none"></path></g><g stroke-linecap="round" transform="translate(213.31402776043467 148.3592267213678) rotate(0 13.011808797209085 13.100190181368646)"><path d="M10.41 0.23 C12.96 -0.42, 16.62 0.48, 19.17 1.91 C21.72 3.33, 24.75 6.2, 25.71 8.78 C26.67 11.36, 25.95 14.69, 24.94 17.38 C23.94 20.07, 22.1 23.44, 19.69 24.92 C17.27 26.39, 13.15 26.77, 10.45 26.24 C7.76 25.71, 5.3 24, 3.51 21.75 C1.73 19.5, -0.21 15.55, -0.23 12.73 C-0.26 9.91, 1.47 6.94, 3.34 4.83 C5.22 2.73, 9.64 0.83, 11.01 0.11 C12.38 -0.61, 11.58 0.35, 11.58 0.51 M12.55 -0.56 C15.29 -0.73, 19.03 1.69, 21.35 3.71 C23.67 5.74, 25.96 8.92, 26.46 11.61 C26.96 14.31, 25.86 17.47, 24.36 19.9 C22.86 22.32, 20.11 25.15, 17.45 26.17 C14.79 27.19, 11.05 27.17, 8.41 26 C5.76 24.82, 2.93 21.68, 1.57 19.11 C0.2 16.54, -0.35 13.35, 0.22 10.58 C0.79 7.82, 2.9 4.4, 4.99 2.52 C7.08 0.64, 11.3 -0.36, 12.74 -0.69 C14.17 -1.03, 13.47 0.14, 13.59 0.52" stroke="#1e1e1e" stroke-width="2" fill="none"></path></g></svg>